<svg xmlns="http://www.w3.org/2000/svg" xmlns:xlink="http://www.w3.org/1999/xlink" width="64" zoomAndPan="magnify" viewBox="0 0 48 48" height="64" preserveAspectRatio="xMidYMid meet" version="1.0"><defs><clipPath id="ef86f84de9"><path d="M 0.488281 0 L 47.507812 0 L 47.507812 47.019531 L 0.488281 47.019531 Z M 0.488281 0 " clip-rule="nonzero"/></clipPath><clipPath id="f1d971cdf9"><path d="M 0.488281 0.332031 L 46.039062 0.332031 L 46.039062 46.617188 L 0.488281 46.617188 Z M 0.488281 0.332031 " clip-rule="nonzero"/></clipPath></defs><g clip-path="url(#ef86f84de9)"><path fill="#ffffff" d="M 0.488281 0 L 47.511719 0 L 47.511719 47.019531 L 0.488281 47.019531 Z M 0.488281 0 " fill-opacity="1" fill-rule="nonzero"/><path fill="#ffffff" d="M 0.488281 0 L 47.511719 0 L 47.511719 47.019531 L 0.488281 47.019531 Z M 0.488281 0 " fill-opacity="1" fill-rule="nonzero"/></g><g clip-path="url(#f1d971cdf9)"><path fill="#1b6b93" d="M 0.828125 5.351562 L 5.519531 0.332031 L 9.730469 5.386719 C 9.859375 5.542969 9.925781 5.738281 9.925781 5.933594 C 9.925781 6.183594 9.8125 6.433594 9.589844 6.609375 C 9.207031 6.90625 8.636719 6.851562 8.328125 6.480469 L 6.378906 4.117188 L 6.378906 32.167969 L 8.339844 29.816406 C 8.648438 29.445312 9.214844 29.382812 9.597656 29.6875 C 9.824219 29.855469 9.933594 30.113281 9.933594 30.363281 C 9.933594 30.558594 9.867188 30.742188 9.738281 30.910156 L 5.53125 35.964844 L 0.828125 30.945312 C 0.492188 30.59375 0.519531 30.046875 0.890625 29.722656 C 1.253906 29.398438 1.824219 29.429688 2.152344 29.789062 L 4.585938 32.390625 L 4.585938 3.914062 L 2.152344 6.507812 C 1.816406 6.859375 1.253906 6.886719 0.890625 6.570312 C 0.519531 6.25 0.492188 5.703125 0.828125 5.351562 Z M 26.65625 28.863281 L 26.65625 21.789062 L 35.925781 21.789062 L 35.925781 28.863281 Z M 31.6875 22.707031 L 31.6875 28.066406 L 35.085938 28.066406 L 35.085938 22.707031 Z M 27.515625 22.707031 L 27.515625 28.066406 L 30.894531 28.066406 L 30.894531 22.707031 Z M 24.726562 16.28125 L 24.726562 11.3125 C 24.726562 10.949219 25.023438 10.664062 25.378906 10.664062 L 28.980469 10.664062 C 29.34375 10.664062 29.632812 10.949219 29.632812 11.3125 L 29.632812 16.28125 C 29.632812 16.644531 29.335938 16.929688 28.980469 16.929688 L 25.378906 16.929688 C 25.023438 16.929688 24.726562 16.632812 24.726562 16.28125 Z M 25.613281 11.542969 L 25.613281 16.050781 L 28.757812 16.050781 L 28.757812 11.542969 Z M 40.367188 46.617188 C 40.5625 46.617188 40.75 46.554688 40.917969 46.425781 L 46.039062 42.25 L 40.953125 37.59375 C 40.601562 37.257812 40.039062 37.289062 39.714844 37.65625 C 39.386719 38.019531 39.414062 38.582031 39.777344 38.90625 L 42.410156 41.324219 L 13.546875 41.324219 L 16.1875 38.90625 C 16.542969 38.574219 16.570312 38.019531 16.253906 37.65625 C 15.925781 37.296875 15.375 37.269531 15.011719 37.59375 L 9.925781 42.25 L 15.046875 46.425781 C 15.207031 46.554688 15.402344 46.617188 15.597656 46.617188 C 15.851562 46.617188 16.113281 46.507812 16.28125 46.285156 C 16.589844 45.90625 16.523438 45.339844 16.148438 45.035156 L 13.769531 43.089844 L 42.203125 43.089844 L 39.824219 45.035156 C 39.453125 45.339844 39.386719 45.90625 39.695312 46.285156 C 39.863281 46.507812 40.113281 46.617188 40.367188 46.617188 Z M 14.023438 32.101562 L 14.496094 32.101562 L 14.496094 18.171875 L 13.976562 18.597656 C 13.5 18.976562 12.902344 19.191406 12.296875 19.191406 C 11.492188 19.191406 10.738281 18.835938 10.222656 18.21875 C 9.777344 17.671875 9.570312 16.976562 9.644531 16.28125 C 9.710938 15.578125 10.066406 14.949219 10.617188 14.503906 L 25.3125 2.628906 C 26.246094 1.886719 27.75 1.886719 28.671875 2.628906 L 34.105469 6.996094 L 34.105469 3.007812 L 39.636719 3.007812 L 39.636719 11.460938 L 43.390625 14.488281 C 43.941406 14.929688 44.285156 15.5625 44.359375 16.265625 C 44.433594 16.96875 44.21875 17.652344 43.773438 18.199219 C 43.289062 18.800781 42.503906 19.152344 41.691406 19.152344 C 41.074219 19.152344 40.488281 18.949219 40.03125 18.578125 L 39.507812 18.160156 L 39.507812 32.09375 L 39.984375 32.09375 C 41.027344 32.09375 41.878906 32.9375 41.878906 33.972656 C 41.878906 35.011719 41.027344 35.851562 39.984375 35.851562 L 14.023438 35.851562 C 12.976562 35.851562 12.128906 35.011719 12.128906 33.972656 C 12.117188 32.945312 12.96875 32.101562 14.023438 32.101562 Z M 14.023438 33.234375 C 13.601562 33.234375 13.257812 33.574219 13.257812 33.984375 C 13.257812 34.398438 13.601562 34.742188 14.023438 34.742188 L 39.984375 34.742188 C 40.402344 34.742188 40.75 34.398438 40.75 33.984375 C 40.75 33.566406 40.402344 33.234375 39.984375 33.234375 Z M 23.550781 32.113281 L 23.550781 22.355469 C 23.550781 22.058594 23.308594 21.820312 23.007812 21.820312 L 20.300781 21.820312 C 20.003906 21.820312 19.761719 22.058594 19.761719 22.355469 L 19.761719 32.113281 Z M 35.253906 7.921875 L 38.5 10.542969 L 38.5 4.238281 L 35.253906 4.238281 Z M 27.003906 5.804688 L 40.75 17.71875 C 41.019531 17.929688 41.355469 18.03125 41.691406 18.03125 C 42.148438 18.03125 42.617188 17.847656 42.894531 17.484375 C 43.425781 16.839844 43.332031 15.882812 42.671875 15.355469 L 38.808594 12.238281 L 38.6875 12.144531 L 34.476562 8.757812 L 34.261719 8.582031 L 27.953125 3.5 C 27.402344 3.054688 26.574219 3.0625 26.023438 3.5 L 11.324219 15.367188 C 10.671875 15.894531 10.570312 16.847656 11.101562 17.496094 C 11.605469 18.117188 12.632812 18.21875 13.246094 17.71875 Z M 16.09375 32.066406 L 18.800781 32.066406 L 18.800781 22.355469 C 18.800781 21.53125 19.472656 20.863281 20.300781 20.863281 L 23.007812 20.863281 C 23.839844 20.863281 24.511719 21.53125 24.511719 22.355469 L 24.511719 32.09375 L 37.902344 32.09375 L 37.902344 16.929688 L 27.003906 7.488281 L 16.09375 17.089844 Z M 16.09375 32.066406 " fill-opacity="1" fill-rule="nonzero"/></g></svg>