<svg xmlns="http://www.w3.org/2000/svg" xmlns:xlink="http://www.w3.org/1999/xlink" width="64" zoomAndPan="magnify" viewBox="0 0 48 48" height="64" preserveAspectRatio="xMidYMid meet" version="1.0"><defs><clipPath id="b3b8b4f191"><path d="M 0.488281 7.464844 L 47.507812 7.464844 L 47.507812 47.019531 L 0.488281 47.019531 Z M 0.488281 7.464844 " clip-rule="nonzero"/></clipPath></defs><g clip-path="url(#b3b8b4f191)"><path fill="#ffffff" d="M 46.140625 26.289062 L 25.75 8.261719 C 25.25 7.816406 24.625 7.597656 24 7.597656 C 23.375 7.597656 22.75 7.816406 22.25 8.261719 L 19.507812 10.6875 C 19.023438 10.023438 18.246094 9.59375 17.367188 9.59375 L 11.96875 9.59375 C 10.503906 9.59375 9.320312 10.78125 9.320312 12.25 L 9.320312 13.273438 C 9.320312 13.761719 9.449219 14.214844 9.675781 14.609375 L 9.675781 19.375 L 1.859375 26.289062 C 1.03125 27.019531 0.742188 28.1875 1.132812 29.21875 C 1.519531 30.253906 2.507812 30.9375 3.609375 30.9375 L 6.847656 30.9375 L 6.847656 44.351562 C 6.847656 45.816406 8.035156 47.003906 9.496094 47.003906 L 38.503906 47.003906 C 39.96875 47.003906 41.152344 45.816406 41.152344 44.351562 L 41.152344 30.9375 L 44.390625 30.9375 C 45.492188 30.9375 46.480469 30.253906 46.867188 29.21875 C 47.257812 28.1875 46.96875 27.019531 46.140625 26.289062 " fill-opacity="1" fill-rule="nonzero"/><path fill="#e9e9e9" d="M 11.96875 9.726562 C 10.582031 9.726562 9.453125 10.859375 9.453125 12.25 L 9.453125 13.273438 C 9.453125 13.722656 9.570312 14.160156 9.792969 14.542969 L 9.808594 14.570312 L 9.808594 19.4375 L 9.765625 19.476562 L 1.945312 26.390625 C 1.167969 27.078125 0.886719 28.199219 1.257812 29.175781 C 1.625 30.148438 2.570312 30.804688 3.609375 30.804688 L 6.980469 30.804688 L 6.980469 44.351562 C 6.980469 45.742188 8.109375 46.871094 9.496094 46.871094 L 38.503906 46.871094 C 39.890625 46.871094 41.019531 45.742188 41.019531 44.351562 L 41.019531 30.804688 L 44.390625 30.804688 C 45.429688 30.804688 46.375 30.148438 46.742188 29.175781 C 47.113281 28.199219 46.835938 27.078125 46.054688 26.390625 L 25.664062 8.359375 C 25.203125 7.953125 24.613281 7.730469 24 7.730469 C 23.386719 7.730469 22.796875 7.953125 22.335938 8.359375 L 19.484375 10.882812 L 19.398438 10.765625 C 18.925781 10.113281 18.167969 9.726562 17.367188 9.726562 Z M 38.503906 47.136719 L 9.496094 47.136719 C 7.964844 47.136719 6.714844 45.886719 6.714844 44.351562 L 6.714844 31.070312 L 3.609375 31.070312 C 2.460938 31.070312 1.414062 30.347656 1.007812 29.265625 C 0.601562 28.1875 0.910156 26.953125 1.769531 26.191406 L 9.546875 19.316406 L 9.546875 14.644531 C 9.3125 14.226562 9.1875 13.757812 9.1875 13.273438 L 9.1875 12.25 C 9.1875 10.710938 10.433594 9.460938 11.96875 9.460938 L 17.367188 9.460938 C 18.203125 9.460938 19 9.84375 19.523438 10.492188 L 22.160156 8.160156 C 22.671875 7.710938 23.324219 7.464844 24 7.464844 C 24.675781 7.464844 25.328125 7.710938 25.835938 8.160156 L 46.230469 26.191406 C 47.09375 26.953125 47.398438 28.1875 46.992188 29.265625 C 46.585938 30.347656 45.539062 31.070312 44.390625 31.070312 L 41.285156 31.070312 L 41.285156 44.351562 C 41.285156 45.886719 40.039062 47.136719 38.503906 47.136719 " fill-opacity="1" fill-rule="nonzero"/></g><path fill="#1db2ff" d="M 24 10.253906 L 17.007812 16.433594 L 17.007812 13.273438 L 17.367188 13.273438 L 17.367188 12.25 L 11.96875 12.25 L 11.96875 13.273438 L 12.324219 13.273438 L 12.324219 20.574219 L 3.609375 28.28125 L 9.496094 28.28125 L 9.496094 44.351562 L 24 44.351562 C 23.984375 44.34375 23.222656 43.933594 22.113281 43.203125 C 20.699219 42.269531 18.722656 40.800781 17.046875 38.960938 C 16.617188 38.492188 16.210938 37.996094 15.835938 37.480469 C 15.589844 37.144531 15.359375 36.796875 15.144531 36.4375 C 14.453125 35.277344 13.960938 34.023438 13.804688 32.703125 C 13.769531 32.414062 13.75 32.117188 13.75 31.820312 C 13.75 29.183594 16.042969 27.039062 18.875 27.039062 C 21.664062 27.039062 23.929688 29.117188 23.996094 31.703125 C 23.996094 31.734375 24 31.769531 24 31.804688 C 24 31.769531 24 31.734375 24.003906 31.703125 C 24.027344 30.828125 24.300781 30.011719 24.761719 29.3125 C 25.667969 27.949219 27.28125 27.039062 29.125 27.039062 C 31.953125 27.039062 34.25 29.183594 34.25 31.820312 C 34.25 38.902344 24 44.351562 24 44.351562 L 38.503906 44.351562 L 38.503906 28.28125 L 44.390625 28.28125 L 24 10.253906 " fill-opacity="1" fill-rule="nonzero"/></svg>