<svg xmlns="http://www.w3.org/2000/svg" xmlns:xlink="http://www.w3.org/1999/xlink" width="64" zoomAndPan="magnify" viewBox="0 0 48 48" height="64" preserveAspectRatio="xMidYMid meet" version="1.0"><defs><clipPath id="7ad2f23f85"><path d="M 15.417969 0 L 32.316406 0 L 32.316406 47 L 15.417969 47 Z M 15.417969 0 " clip-rule="nonzero"/></clipPath></defs><g clip-path="url(#7ad2f23f85)"><path fill="#1db2ff" d="M 25.769531 3.875 C 25.769531 4.933594 24.925781 5.796875 23.878906 5.796875 C 22.835938 5.796875 21.988281 4.933594 21.988281 3.875 C 21.988281 2.8125 22.835938 1.953125 23.878906 1.953125 C 24.925781 1.953125 25.769531 2.8125 25.769531 3.875 Z M 22.421875 34.894531 L 21.570312 35.925781 L 21.570312 36.8125 C 21.519531 36.683594 21.425781 36.59375 21.277344 36.542969 L 20.371094 36.210938 L 20.371094 34.195312 L 21.277344 33.875 C 21.375 33.835938 21.445312 33.78125 21.5 33.710938 L 21.5 33.910156 Z M 17.339844 35.195312 L 17.339844 35.179688 L 19.515625 34.46875 L 19.515625 35.9375 Z M 15.425781 8.625 C 15.425781 12.046875 17.398438 15.003906 20.257812 16.382812 L 20.25 16.382812 L 20.25 18.074219 L 20.980469 18.074219 L 20.980469 19.683594 L 21.5 19.683594 L 21.5 23.429688 C 21.460938 23.171875 21.332031 23.003906 21.019531 23.003906 C 20.628906 23.003906 20.523438 23.269531 20.523438 23.636719 L 20.523438 26.121094 L 19.214844 26.121094 L 19.214844 23.996094 C 19.214844 23.667969 19.125 23.40625 18.738281 23.40625 C 18.355469 23.40625 18.265625 23.667969 18.265625 23.996094 L 18.265625 26.121094 L 17.09375 26.121094 L 17.09375 23.699219 C 17.09375 23.332031 16.988281 23.0625 16.597656 23.0625 C 16.203125 23.0625 16.097656 23.332031 16.097656 23.699219 L 16.097656 26.640625 C 16.097656 27.082031 16.273438 27.375 16.820312 27.375 L 20.792969 27.375 C 21.253906 27.375 21.449219 27.171875 21.5 26.847656 L 21.5 28.558594 C 21.453125 28.28125 21.28125 28.074219 20.996094 28.074219 C 20.660156 28.074219 20.476562 28.367188 20.476562 28.726562 L 20.476562 30.820312 L 16.617188 30.820312 C 16.25 30.820312 16 31.0625 16 31.445312 C 16 31.828125 16.25 32.070312 16.617188 32.070312 L 20.792969 32.070312 C 21.253906 32.070312 21.449219 31.871094 21.5 31.546875 L 21.5 32.953125 C 21.402344 32.8125 21.25 32.71875 21.074219 32.71875 C 20.9375 32.71875 20.71875 32.796875 20.597656 32.84375 L 16.453125 34.355469 C 16.070312 34.496094 16 34.746094 16 35.027344 L 16 35.328125 C 16 35.632812 16.097656 35.832031 16.378906 35.9375 L 20.597656 37.558594 C 20.71875 37.605469 20.9375 37.679688 21.074219 37.679688 C 21.316406 37.679688 21.492188 37.550781 21.570312 37.347656 L 21.570312 39.574219 C 21.363281 38.578125 20.730469 38.085938 19.9375 38.085938 C 19.304688 38.085938 18.632812 38.375 18.378906 39.523438 L 18.144531 40.570312 C 18.054688 40.964844 17.933594 41.425781 17.558594 41.425781 C 17.183594 41.425781 16.917969 41.101562 16.917969 40.523438 C 16.917969 39.351562 17.722656 39.460938 17.722656 38.878906 C 17.722656 38.574219 17.542969 38.308594 17.234375 38.308594 C 16.511719 38.308594 15.96875 39.460938 15.96875 40.4375 C 15.96875 41.5 16.421875 42.632812 17.625 42.632812 C 18.207031 42.632812 18.824219 42.425781 19.109375 41.289062 L 19.464844 39.875 C 19.566406 39.445312 19.808594 39.339844 20.027344 39.339844 C 20.386719 39.339844 20.742188 39.699219 20.742188 40.347656 C 20.742188 41.613281 19.761719 41.441406 19.761719 42.121094 C 19.761719 42.425781 19.972656 42.648438 20.273438 42.648438 C 20.753906 42.648438 21.363281 42.171875 21.570312 41.136719 L 21.570312 44.765625 L 22.554688 45.742188 L 22.554688 19.71875 L 23.058594 19.71875 L 23.058594 46.242188 L 23.777344 46.960938 L 24.34375 46.960938 L 25.902344 45.375 L 25.902344 43.578125 L 24.914062 42.640625 L 26.117188 41.417969 L 26.117188 40.195312 L 25.515625 39.621094 L 26.117188 38.933594 L 26.117188 37.316406 L 24.808594 36.203125 L 24.808594 35.230469 L 26.257812 34.222656 L 26.257812 19.683594 L 26.78125 19.683594 L 26.78125 18.074219 L 27.511719 18.074219 L 27.511719 16.382812 L 27.503906 16.382812 C 30.359375 15.003906 32.335938 12.046875 32.335938 8.625 C 32.335938 3.882812 28.546875 0.0351562 23.878906 0.0351562 C 19.210938 0.0351562 15.425781 3.882812 15.425781 8.625 " fill-opacity="1" fill-rule="nonzero"/></g></svg>