<svg xmlns="http://www.w3.org/2000/svg" xmlns:xlink="http://www.w3.org/1999/xlink" width="64" zoomAndPan="magnify" viewBox="0 0 48 48" height="64" preserveAspectRatio="xMidYMid meet" version="1.0"><defs><clipPath id="38c69c46c7"><path d="M 0.488281 0 L 47.507812 0 L 47.507812 33.0625 L 0.488281 33.0625 Z M 0.488281 0 " clip-rule="nonzero"/></clipPath></defs><g clip-path="url(#38c69c46c7)"><path fill="#1b6b93" d="M 45.457031 11.289062 L 43.699219 9.640625 L 46.296875 9.015625 C 46.996094 8.871094 47.46875 8.210938 47.433594 7.515625 C 47.324219 5.132812 44.761719 4.03125 42.308594 4.03125 C 41.503906 4.03125 40.84375 4.691406 40.84375 5.496094 L 40.84375 5.570312 L 40.109375 4.140625 C 38.828125 1.574219 36.265625 0 33.445312 0 L 14.554688 0 C 11.734375 0 9.171875 1.574219 7.890625 4.140625 L 7.15625 5.570312 L 7.15625 5.535156 C 7.15625 4.726562 6.496094 4.070312 5.691406 4.070312 C 3.238281 4.070312 0.675781 5.132812 0.566406 7.550781 C 0.53125 8.246094 1.003906 8.871094 1.703125 9.054688 L 4.300781 9.675781 L 2.542969 11.324219 C 1.296875 12.425781 0.566406 14.074219 0.566406 15.796875 C 0.566406 18.875 1.410156 25.070312 1.445312 25.289062 C 1.589844 26.832031 2.617188 28.039062 4.007812 28.480469 L 4.007812 30.128906 C 4.007812 31.742188 5.328125 33.0625 6.9375 33.0625 L 11.074219 33.0625 C 12.6875 33.0625 14.003906 31.742188 14.003906 30.128906 L 14.003906 28.664062 L 34.03125 28.664062 L 34.03125 30.128906 C 34.03125 31.742188 35.351562 33.0625 36.960938 33.0625 L 41.097656 33.0625 C 42.710938 33.0625 44.027344 31.742188 44.027344 30.128906 L 44.027344 28.480469 C 45.417969 28.039062 46.445312 26.832031 46.589844 25.328125 C 46.628906 25.070312 47.46875 18.875 47.46875 15.796875 C 47.433594 14.074219 46.703125 12.425781 45.457031 11.289062 Z M 32.128906 13.230469 L 15.871094 13.230469 C 13.96875 11.65625 11.515625 10.410156 9.609375 9.601562 C 13.820312 9.347656 18.910156 9.199219 24.21875 9.199219 C 29.347656 9.199219 34.324219 9.347656 38.425781 9.601562 C 36.523438 10.410156 34.070312 11.617188 32.128906 13.230469 Z M 42.308594 5.535156 C 42.34375 5.535156 45.859375 5.535156 45.96875 7.625 L 42.417969 8.46875 L 42.308594 8.355469 Z M 9.171875 4.839844 C 10.234375 2.785156 12.28125 1.503906 14.554688 1.503906 L 33.445312 1.503906 C 35.71875 1.503906 37.765625 2.785156 38.828125 4.839844 L 40.550781 8.246094 C 36.046875 7.917969 30.222656 7.734375 24.21875 7.734375 C 17.996094 7.734375 11.992188 7.953125 7.449219 8.320312 Z M 2.03125 7.625 C 2.140625 5.535156 5.65625 5.535156 5.691406 5.535156 L 5.691406 8.355469 L 5.582031 8.46875 Z M 12.539062 30.09375 C 12.539062 30.898438 11.878906 31.558594 11.074219 31.558594 L 6.902344 31.558594 C 6.09375 31.558594 5.4375 30.898438 5.4375 30.09375 L 5.4375 28.625 L 12.503906 28.625 L 12.503906 30.09375 Z M 41.097656 31.558594 L 36.925781 31.558594 C 36.121094 31.558594 35.460938 30.898438 35.460938 30.09375 L 35.460938 28.625 L 42.527344 28.625 L 42.527344 30.09375 C 42.5625 30.898438 41.90625 31.558594 41.097656 31.558594 Z M 45.125 25.144531 C 45.015625 26.28125 44.101562 27.160156 42.929688 27.160156 L 5.070312 27.160156 C 3.933594 27.160156 2.984375 26.28125 2.875 25.109375 C 2.875 25.070312 2.03125 18.765625 2.03125 15.796875 C 2.03125 14.476562 2.582031 13.230469 3.53125 12.351562 L 6.207031 9.894531 C 6.207031 9.894531 6.207031 9.894531 6.242188 9.894531 C 6.316406 9.933594 11.660156 11.582031 14.992188 14.367188 C 15.066406 14.476562 15.175781 14.550781 15.285156 14.625 C 15.320312 14.660156 15.359375 14.660156 15.359375 14.699219 L 32.640625 14.699219 C 32.679688 14.660156 32.714844 14.660156 32.714844 14.625 C 32.824219 14.550781 32.933594 14.476562 33.007812 14.367188 C 36.339844 11.617188 41.683594 9.933594 41.757812 9.894531 C 41.757812 9.894531 41.757812 9.894531 41.792969 9.894531 L 44.46875 12.351562 C 45.417969 13.230469 45.96875 14.476562 45.96875 15.796875 C 45.96875 18.765625 45.125 25.070312 45.125 25.144531 Z M 45.125 25.144531 " fill-opacity="1" fill-rule="nonzero"/></g><path fill="#1b6b93" d="M 43.957031 14.589844 C 43.734375 13.964844 43.1875 13.597656 42.5625 13.597656 C 42.453125 13.597656 42.378906 13.597656 42.269531 13.636719 L 37.253906 14.625 C 36.707031 14.734375 36.300781 15.101562 36.121094 15.652344 C 35.9375 16.199219 36.121094 16.75 36.484375 17.117188 L 38.464844 19.058594 C 38.71875 19.316406 39.121094 19.5 39.488281 19.5 L 41.683594 19.5 C 42.5625 19.5 43.441406 19.058594 43.957031 18.328125 C 44.46875 17.59375 44.613281 16.675781 44.320312 15.835938 Z M 41.722656 17.996094 L 39.523438 17.996094 L 37.546875 16.054688 L 42.5625 15.066406 L 42.964844 16.273438 C 43.257812 17.117188 42.636719 17.996094 41.722656 17.996094 Z M 41.722656 17.996094 " fill-opacity="1" fill-rule="nonzero"/><path fill="#1b6b93" d="M 10.746094 14.589844 L 5.730469 13.597656 C 5.621094 13.597656 5.546875 13.597656 5.4375 13.597656 C 4.8125 13.597656 4.265625 14 4.042969 14.589844 L 3.640625 15.796875 C 3.347656 16.640625 3.496094 17.558594 4.007812 18.289062 C 4.519531 19.023438 5.363281 19.460938 6.277344 19.460938 L 8.476562 19.460938 C 8.878906 19.460938 9.242188 19.316406 9.5 19.023438 L 11.476562 17.082031 C 11.878906 16.714844 11.992188 16.128906 11.84375 15.613281 C 11.699219 15.101562 11.257812 14.699219 10.746094 14.589844 Z M 8.476562 17.996094 L 6.277344 17.996094 C 5.363281 17.996094 4.742188 17.117188 5.035156 16.273438 L 5.4375 15.066406 L 10.453125 16.054688 Z M 8.476562 17.996094 " fill-opacity="1" fill-rule="nonzero"/><path fill="#1b6b93" d="M 33.152344 16.824219 C 32.75 16.421875 32.164062 16.164062 31.617188 16.164062 L 16.382812 16.164062 C 15.796875 16.164062 15.25 16.421875 14.847656 16.824219 L 12.539062 19.167969 C 11.878906 19.828125 11.734375 20.855469 12.136719 21.699219 L 12.796875 23.019531 C 13.160156 23.789062 13.929688 24.226562 14.738281 24.226562 L 33.226562 24.226562 C 34.070312 24.226562 34.800781 23.75 35.167969 23.019531 L 35.828125 21.699219 C 36.230469 20.855469 36.082031 19.828125 35.425781 19.167969 Z M 34.546875 21.039062 L 33.886719 22.359375 C 33.777344 22.613281 33.519531 22.761719 33.226562 22.761719 L 14.738281 22.761719 C 14.480469 22.761719 14.222656 22.613281 14.078125 22.359375 L 13.417969 21.039062 C 13.273438 20.746094 13.34375 20.414062 13.566406 20.195312 L 15.871094 17.851562 C 16.019531 17.703125 16.199219 17.628906 16.382812 17.628906 L 31.578125 17.628906 C 31.761719 17.628906 31.945312 17.703125 32.09375 17.851562 L 34.398438 20.195312 C 34.617188 20.414062 34.691406 20.746094 34.546875 21.039062 Z M 34.546875 21.039062 " fill-opacity="1" fill-rule="nonzero"/><path fill="#1b6b93" d="M 43.222656 22.027344 C 43.222656 21.625 42.894531 21.296875 42.492188 21.296875 L 40.292969 21.296875 C 39.488281 21.296875 38.828125 21.957031 38.828125 22.761719 C 38.828125 24.375 40.148438 25.695312 41.757812 25.695312 L 42.492188 25.695312 C 42.894531 25.695312 43.222656 25.363281 43.222656 24.960938 C 43.222656 24.558594 42.894531 24.226562 42.492188 24.226562 L 41.757812 24.226562 C 40.953125 24.226562 40.292969 23.566406 40.292969 22.761719 L 42.492188 22.761719 C 42.894531 22.761719 43.222656 22.433594 43.222656 22.027344 Z M 43.222656 22.027344 " fill-opacity="1" fill-rule="nonzero"/><path fill="#1b6b93" d="M 7.707031 21.296875 L 5.507812 21.296875 C 5.105469 21.296875 4.777344 21.625 4.777344 22.027344 C 4.777344 22.433594 5.105469 22.761719 5.507812 22.761719 L 7.707031 22.761719 C 7.707031 23.566406 7.046875 24.226562 6.242188 24.226562 L 5.507812 24.226562 C 5.105469 24.226562 4.777344 24.558594 4.777344 24.960938 C 4.777344 25.363281 5.105469 25.695312 5.507812 25.695312 L 6.242188 25.695312 C 7.851562 25.695312 9.171875 24.375 9.171875 22.761719 C 9.171875 21.957031 8.511719 21.296875 7.707031 21.296875 Z M 7.707031 21.296875 " fill-opacity="1" fill-rule="nonzero"/></svg>