<svg xmlns="http://www.w3.org/2000/svg" xmlns:xlink="http://www.w3.org/1999/xlink" width="64" zoomAndPan="magnify" viewBox="0 0 48 48" height="64" preserveAspectRatio="xMidYMid meet" version="1.0"><defs><clipPath id="3d60344e43"><path d="M 0.488281 0 L 47.507812 0 L 47.507812 47.019531 L 0.488281 47.019531 Z M 0.488281 0 " clip-rule="nonzero"/></clipPath><clipPath id="f2990ac1d5"><path d="M 33 0 L 47.507812 0 L 47.507812 27 L 33 27 Z M 33 0 " clip-rule="nonzero"/></clipPath><clipPath id="68c8174b18"><path d="M 0.488281 4 L 39 4 L 39 32.328125 L 0.488281 32.328125 Z M 0.488281 4 " clip-rule="nonzero"/></clipPath></defs><g clip-path="url(#3d60344e43)"><path fill="#ffffff" d="M 0.488281 0 L 47.511719 0 L 47.511719 155.753906 L 0.488281 155.753906 Z M 0.488281 0 " fill-opacity="1" fill-rule="nonzero"/><path fill="#ffffff" d="M 0.488281 0 L 47.511719 0 L 47.511719 47.019531 L 0.488281 47.019531 Z M 0.488281 0 " fill-opacity="1" fill-rule="nonzero"/><path fill="#ffffff" d="M 0.488281 0 L 47.511719 0 L 47.511719 47.019531 L 0.488281 47.019531 Z M 0.488281 0 " fill-opacity="1" fill-rule="nonzero"/></g><g clip-path="url(#f2990ac1d5)"><path fill="#1b6b93" d="M 47.476562 25.800781 L 47.476562 11.679688 C 47.476562 11.539062 47.425781 11.417969 47.324219 11.316406 C 47.222656 11.21875 47.101562 11.167969 46.960938 11.167969 L 40.703125 11.167969 L 40.703125 7.125 L 42.949219 7.125 C 43.117188 7.125 43.25 7.0625 43.351562 6.933594 C 43.457031 6.808594 43.492188 6.664062 43.457031 6.503906 L 42.296875 1.273438 C 42.210938 0.902344 42.019531 0.597656 41.71875 0.359375 C 41.421875 0.121094 41.078125 0 40.691406 0 L 37.503906 0 C 37.121094 0 36.777344 0.121094 36.476562 0.359375 C 36.179688 0.597656 35.988281 0.902344 35.902344 1.273438 L 34.742188 6.503906 C 34.707031 6.664062 34.742188 6.808594 34.84375 6.933594 C 34.949219 7.0625 35.082031 7.125 35.246094 7.125 L 37.496094 7.125 L 37.496094 11.167969 L 34.046875 11.167969 C 33.90625 11.167969 33.785156 11.21875 33.683594 11.316406 C 33.582031 11.417969 33.53125 11.539062 33.53125 11.679688 C 33.53125 11.820312 33.582031 11.941406 33.683594 12.039062 C 33.785156 12.140625 33.90625 12.191406 34.046875 12.191406 L 46.441406 12.191406 L 46.441406 16.5625 L 39.101562 16.5625 C 38.957031 16.5625 38.835938 16.613281 38.734375 16.710938 C 38.632812 16.8125 38.582031 16.933594 38.582031 17.074219 C 38.582031 17.214844 38.632812 17.335938 38.734375 17.433594 C 38.835938 17.535156 38.957031 17.585938 39.101562 17.585938 L 46.441406 17.585938 L 46.441406 21.957031 L 40.074219 21.957031 C 39.929688 21.953125 39.808594 22.003906 39.703125 22.105469 C 39.601562 22.203125 39.550781 22.324219 39.550781 22.46875 C 39.550781 22.609375 39.601562 22.734375 39.703125 22.832031 C 39.808594 22.933594 39.929688 22.980469 40.074219 22.980469 L 42.636719 22.980469 C 42.675781 23.003906 42.722656 23.023438 42.769531 23.035156 C 44.992188 23.574219 44.824219 25.664062 44.816406 25.75 C 44.800781 25.902344 44.84375 26.03125 44.945312 26.144531 C 45.046875 26.257812 45.175781 26.3125 45.328125 26.3125 L 46.957031 26.3125 C 47.101562 26.3125 47.222656 26.265625 47.324219 26.164062 C 47.425781 26.0625 47.476562 25.945312 47.476562 25.800781 Z M 36.910156 1.492188 C 36.941406 1.355469 37.015625 1.242188 37.125 1.15625 C 37.234375 1.066406 37.363281 1.023438 37.503906 1.019531 L 40.691406 1.019531 C 40.835938 1.023438 40.960938 1.066406 41.074219 1.15625 C 41.183594 1.242188 41.253906 1.355469 41.285156 1.492188 L 42.308594 6.101562 L 35.890625 6.101562 Z M 38.527344 7.125 L 39.667969 7.125 L 39.667969 11.167969 L 38.527344 11.167969 Z M 45.847656 25.292969 C 45.789062 24.390625 45.4375 23.621094 44.792969 22.980469 L 46.441406 22.980469 L 46.441406 25.292969 Z M 45.847656 25.292969 " fill-opacity="1" fill-rule="nonzero"/></g><g clip-path="url(#68c8174b18)"><path fill="#1b6b93" d="M 1.039062 32.328125 L 3.148438 32.328125 C 3.28125 32.328125 3.394531 32.285156 3.492188 32.195312 C 3.589844 32.109375 3.648438 32 3.660156 31.871094 C 3.675781 31.71875 4.089844 28.175781 7.199219 27.472656 C 7.214844 27.46875 7.230469 27.460938 7.246094 27.457031 L 31.503906 27.457031 C 31.519531 27.460938 31.53125 27.46875 31.546875 27.472656 C 34.664062 28.171875 35.078125 31.71875 35.09375 31.867188 C 35.105469 32 35.160156 32.109375 35.261719 32.195312 C 35.359375 32.285156 35.472656 32.328125 35.605469 32.328125 L 37.714844 32.328125 C 37.855469 32.328125 37.976562 32.277344 38.078125 32.179688 C 38.179688 32.078125 38.230469 31.957031 38.230469 31.816406 L 38.230469 20.605469 C 38.230469 19.539062 37.867188 18.609375 37.144531 17.816406 C 35.433594 15.933594 33.082031 14.414062 31.882812 13.703125 C 32.285156 13.328125 32.484375 12.867188 32.484375 12.320312 C 32.484375 11.332031 32.117188 10.503906 31.382812 9.835938 L 31.382812 7.003906 C 31.382812 6.621094 31.308594 6.253906 31.160156 5.898438 C 31.011719 5.546875 30.800781 5.234375 30.527344 4.964844 C 30.253906 4.695312 29.9375 4.484375 29.582031 4.339844 C 29.222656 4.191406 28.851562 4.117188 28.464844 4.117188 L 10.289062 4.117188 C 9.902344 4.117188 9.53125 4.191406 9.175781 4.339844 C 8.816406 4.484375 8.503906 4.695312 8.230469 4.964844 C 7.957031 5.234375 7.746094 5.546875 7.597656 5.898438 C 7.449219 6.253906 7.375 6.621094 7.375 7.003906 L 7.375 9.835938 C 6.636719 10.503906 6.269531 11.332031 6.269531 12.320312 C 6.269531 12.867188 6.472656 13.328125 6.875 13.703125 C 5.671875 14.414062 3.324219 15.933594 1.609375 17.816406 C 0.886719 18.609375 0.527344 19.539062 0.523438 20.605469 L 0.523438 31.816406 C 0.523438 31.957031 0.574219 32.078125 0.675781 32.179688 C 0.777344 32.277344 0.898438 32.328125 1.039062 32.328125 Z M 37.199219 26.433594 L 1.558594 26.433594 L 1.558594 23.125 L 37.199219 23.125 Z M 2.707031 31.304688 L 1.558594 31.304688 L 1.558594 27.457031 L 4.898438 27.457031 C 3.402344 28.648438 2.878906 30.460938 2.707031 31.304688 Z M 36.046875 31.304688 C 35.878906 30.460938 35.351562 28.648438 33.855469 27.457031 L 37.199219 27.457031 L 37.199219 31.304688 Z M 30.5625 13.203125 L 19.894531 13.203125 L 19.894531 12.46875 C 19.890625 12.117188 19.949219 11.773438 20.078125 11.445312 C 20.203125 11.117188 20.386719 10.824219 20.628906 10.566406 C 20.871094 10.304688 21.152344 10.101562 21.472656 9.949219 C 21.796875 9.796875 22.132812 9.710938 22.488281 9.6875 C 22.542969 9.683594 22.597656 9.683594 22.652344 9.683594 L 27.136719 9.683594 C 27.144531 9.683594 27.152344 9.683594 27.15625 9.683594 C 27.175781 9.683594 28.847656 9.621094 30.140625 10.226562 C 30.542969 10.421875 30.863281 10.710938 31.101562 11.089844 C 31.335938 11.464844 31.457031 11.878906 31.453125 12.320312 C 31.453125 12.566406 31.367188 12.773438 31.191406 12.945312 C 31.019531 13.117188 30.808594 13.203125 30.5625 13.203125 Z M 10.289062 5.140625 L 28.464844 5.140625 C 28.714844 5.140625 28.953125 5.1875 29.183594 5.28125 C 29.417969 5.378906 29.621094 5.511719 29.796875 5.6875 C 29.972656 5.863281 30.109375 6.0625 30.203125 6.292969 C 30.300781 6.519531 30.347656 6.757812 30.347656 7.003906 L 30.347656 9.203125 C 28.925781 8.617188 27.296875 8.65625 27.125 8.660156 L 22.652344 8.660156 C 22.578125 8.660156 22.507812 8.664062 22.4375 8.667969 C 21.796875 8.699219 21.207031 8.882812 20.664062 9.214844 C 20.121094 9.546875 19.691406 9.988281 19.378906 10.539062 C 19.0625 9.988281 18.632812 9.546875 18.089844 9.214844 C 17.546875 8.882812 16.957031 8.699219 16.320312 8.667969 C 16.25 8.664062 16.175781 8.660156 16.101562 8.660156 L 11.628906 8.660156 C 11.460938 8.65625 9.832031 8.617188 8.40625 9.203125 L 8.40625 7.003906 C 8.40625 6.757812 8.453125 6.519531 8.550781 6.292969 C 8.644531 6.0625 8.78125 5.863281 8.957031 5.6875 C 9.136719 5.511719 9.339844 5.378906 9.570312 5.28125 C 9.800781 5.1875 10.039062 5.140625 10.289062 5.140625 Z M 8.617188 10.226562 C 9.683594 9.726562 11.03125 9.683594 11.460938 9.683594 C 11.546875 9.683594 11.59375 9.683594 11.597656 9.683594 C 11.605469 9.683594 11.613281 9.683594 11.621094 9.683594 L 16.101562 9.683594 C 16.15625 9.683594 16.214844 9.683594 16.269531 9.6875 C 16.621094 9.710938 16.960938 9.796875 17.28125 9.949219 C 17.601562 10.101562 17.882812 10.304688 18.125 10.5625 C 18.367188 10.824219 18.550781 11.117188 18.679688 11.445312 C 18.804688 11.773438 18.867188 12.113281 18.859375 12.46875 L 18.859375 13.203125 L 8.191406 13.203125 C 7.949219 13.203125 7.738281 13.117188 7.5625 12.945312 C 7.390625 12.773438 7.304688 12.566406 7.304688 12.320312 C 7.300781 11.875 7.417969 11.464844 7.65625 11.085938 C 7.890625 10.710938 8.210938 10.421875 8.617188 10.226562 Z M 2.378906 18.5 C 4.394531 16.285156 7.457031 14.539062 8.035156 14.21875 C 8.089844 14.222656 8.140625 14.226562 8.191406 14.226562 L 30.5625 14.226562 C 30.613281 14.226562 30.667969 14.222656 30.71875 14.21875 C 31.300781 14.539062 34.363281 16.285156 36.378906 18.5 C 36.921875 19.097656 37.195312 19.800781 37.199219 20.605469 L 37.199219 22.101562 L 1.558594 22.101562 L 1.558594 20.605469 C 1.558594 19.800781 1.832031 19.097656 2.378906 18.5 Z M 2.378906 18.5 " fill-opacity="1" fill-rule="nonzero"/></g><path fill="#1b6b93" d="M 40.871094 14.253906 C 40.871094 14.394531 40.820312 14.515625 40.722656 14.617188 C 40.621094 14.714844 40.5 14.765625 40.355469 14.765625 C 40.214844 14.765625 40.089844 14.714844 39.992188 14.617188 C 39.890625 14.515625 39.839844 14.394531 39.839844 14.253906 C 39.839844 14.113281 39.890625 13.992188 39.992188 13.894531 C 40.089844 13.792969 40.214844 13.742188 40.355469 13.742188 C 40.5 13.742188 40.621094 13.792969 40.722656 13.894531 C 40.820312 13.992188 40.871094 14.113281 40.871094 14.253906 Z M 40.871094 14.253906 " fill-opacity="1" fill-rule="nonzero"/><path fill="#1b6b93" d="M 40.871094 19.894531 C 40.871094 20.035156 40.820312 20.15625 40.722656 20.253906 C 40.621094 20.355469 40.5 20.402344 40.355469 20.402344 C 40.214844 20.402344 40.089844 20.355469 39.992188 20.253906 C 39.890625 20.15625 39.839844 20.035156 39.839844 19.894531 C 39.839844 19.75 39.890625 19.632812 39.992188 19.53125 C 40.089844 19.429688 40.214844 19.382812 40.355469 19.382812 C 40.5 19.382812 40.621094 19.429688 40.722656 19.53125 C 40.820312 19.632812 40.871094 19.75 40.871094 19.894531 Z M 40.871094 19.894531 " fill-opacity="1" fill-rule="nonzero"/></svg>