<svg xmlns="http://www.w3.org/2000/svg" xmlns:xlink="http://www.w3.org/1999/xlink" width="64" zoomAndPan="magnify" viewBox="0 0 48 48" height="64" preserveAspectRatio="xMidYMid meet" version="1.0"><defs><clipPath id="9a626630cc"><path d="M 0.488281 0 L 47.507812 0 L 47.507812 47.019531 L 0.488281 47.019531 Z M 0.488281 0 " clip-rule="nonzero"/></clipPath><clipPath id="164afd0008"><path d="M 0.488281 9.375 L 47.507812 9.375 L 47.507812 46.84375 L 0.488281 46.84375 Z M 0.488281 9.375 " clip-rule="nonzero"/></clipPath></defs><g clip-path="url(#9a626630cc)"><path fill="#ffffff" d="M 0.488281 0 L 47.511719 0 L 47.511719 101.386719 L 0.488281 101.386719 Z M 0.488281 0 " fill-opacity="1" fill-rule="nonzero"/><path fill="#ffffff" d="M 0.488281 0 L 47.511719 0 L 47.511719 47.019531 L 0.488281 47.019531 Z M 0.488281 0 " fill-opacity="1" fill-rule="nonzero"/><path fill="#ffffff" d="M 0.488281 0 L 47.511719 0 L 47.511719 47.019531 L 0.488281 47.019531 Z M 0.488281 0 " fill-opacity="1" fill-rule="nonzero"/></g><path fill="#1db2ff" d="M 13.789062 24.960938 L 20.179688 24.960938 C 20.386719 24.960938 20.550781 24.796875 20.550781 24.589844 L 20.550781 18.234375 C 20.550781 18.03125 20.386719 17.867188 20.179688 17.867188 L 13.789062 17.867188 C 13.582031 17.867188 13.417969 18.03125 13.417969 18.234375 L 13.417969 24.589844 C 13.417969 24.796875 13.582031 24.960938 13.789062 24.960938 Z M 14.160156 18.605469 L 19.808594 18.605469 L 19.808594 24.222656 L 14.160156 24.222656 Z M 14.160156 18.605469 " fill-opacity="1" fill-rule="nonzero"/><path fill="#1db2ff" d="M 18.890625 19.148438 L 15.078125 19.148438 C 14.871094 19.148438 14.703125 19.3125 14.703125 19.515625 L 14.703125 23.308594 C 14.703125 23.515625 14.871094 23.679688 15.078125 23.679688 L 18.890625 23.679688 C 19.097656 23.679688 19.261719 23.515625 19.261719 23.308594 L 19.261719 19.515625 C 19.261719 19.3125 19.097656 19.148438 18.890625 19.148438 Z M 18.519531 22.941406 L 15.449219 22.941406 L 15.449219 19.886719 L 18.519531 19.886719 Z M 18.519531 22.941406 " fill-opacity="1" fill-rule="nonzero"/><g clip-path="url(#164afd0008)"><path fill="#1db2ff" d="M 46.03125 44.089844 L 45.847656 44.089844 L 45.847656 27.511719 C 46.414062 27.40625 46.894531 27.058594 47.171875 26.535156 C 47.511719 25.902344 47.472656 25.164062 47.0625 24.570312 L 40.972656 15.648438 C 40.902344 15.546875 40.789062 15.488281 40.664062 15.488281 L 23.054688 15.488281 L 18.738281 10.207031 C 18.308594 9.679688 17.667969 9.375 16.984375 9.375 C 16.300781 9.375 15.660156 9.679688 15.230469 10.207031 L 1.546875 26.949219 C 1.199219 27.371094 1.128906 27.945312 1.367188 28.441406 C 1.601562 28.933594 2.089844 29.242188 2.644531 29.242188 C 2.792969 29.242188 2.9375 29.210938 3.078125 29.164062 L 3.078125 44.089844 L 1.855469 44.089844 C 1.101562 44.089844 0.488281 44.699219 0.488281 45.472656 C 0.488281 46.21875 1.101562 46.832031 1.855469 46.832031 L 46.03125 46.832031 C 46.785156 46.832031 47.398438 46.222656 47.398438 45.449219 C 47.398438 44.699219 46.785156 44.089844 46.03125 44.089844 Z M 30.886719 44.089844 L 30.886719 29.164062 C 31.027344 29.210938 31.171875 29.242188 31.324219 29.242188 C 31.875 29.242188 32.367188 28.933594 32.601562 28.441406 C 32.738281 28.15625 32.769531 27.84375 32.710938 27.550781 L 45.105469 27.550781 L 45.105469 44.089844 Z M 40.46875 16.226562 L 46.449219 24.988281 C 46.695312 25.351562 46.722656 25.800781 46.515625 26.191406 C 46.308594 26.578125 45.917969 26.8125 45.476562 26.8125 L 32.484375 26.8125 C 32.433594 26.8125 32.382812 26.824219 32.335938 26.84375 L 23.660156 16.226562 Z M 2.039062 28.121094 C 1.925781 27.882812 1.957031 27.621094 2.121094 27.414062 L 15.808594 10.671875 C 16.097656 10.320312 16.527344 10.117188 16.984375 10.117188 C 17.441406 10.117188 17.871094 10.320312 18.160156 10.671875 L 31.84375 27.414062 C 32.011719 27.621094 32.042969 27.882812 31.929688 28.121094 C 31.816406 28.359375 31.589844 28.5 31.324219 28.5 C 31.121094 28.5 30.933594 28.410156 30.804688 28.253906 L 17.273438 11.699219 C 17.203125 11.613281 17.097656 11.5625 16.984375 11.5625 C 16.871094 11.5625 16.765625 11.613281 16.695312 11.699219 L 3.164062 28.253906 C 3.035156 28.410156 2.84375 28.5 2.644531 28.5 C 2.378906 28.5 2.152344 28.359375 2.039062 28.121094 Z M 3.824219 28.621094 L 16.984375 12.519531 L 30.144531 28.621094 L 30.144531 44.089844 L 29.214844 44.089844 L 29.214844 32.871094 C 29.214844 32.664062 29.046875 32.5 28.839844 32.5 L 20.484375 32.5 C 20.28125 32.5 20.113281 32.664062 20.113281 32.871094 L 20.113281 44.089844 L 3.824219 44.089844 Z M 28.46875 44.089844 L 20.855469 44.089844 L 20.855469 33.238281 L 28.46875 33.238281 Z M 46.03125 46.089844 L 1.855469 46.089844 C 1.511719 46.089844 1.234375 45.8125 1.234375 45.449219 C 1.234375 45.105469 1.511719 44.828125 1.855469 44.828125 L 46.03125 44.828125 C 46.375 44.828125 46.652344 45.105469 46.652344 45.46875 C 46.652344 45.8125 46.375 46.089844 46.03125 46.089844 Z M 46.03125 46.089844 " fill-opacity="1" fill-rule="nonzero"/></g><path fill="#1db2ff" d="M 43.980469 32.03125 L 32.050781 32.03125 C 31.84375 32.03125 31.679688 32.199219 31.679688 32.402344 L 31.679688 40.148438 C 31.679688 40.351562 31.84375 40.515625 32.050781 40.515625 L 43.980469 40.515625 C 44.183594 40.515625 44.351562 40.351562 44.351562 40.148438 L 44.351562 32.402344 C 44.351562 32.199219 44.183594 32.03125 43.980469 32.03125 Z M 43.605469 38.292969 L 38.386719 38.292969 L 38.386719 32.773438 L 43.605469 32.773438 Z M 37.644531 32.773438 L 37.644531 38.292969 L 32.421875 38.292969 L 32.421875 32.773438 Z M 32.421875 39.777344 L 32.421875 39.035156 L 43.609375 39.035156 L 43.609375 39.777344 Z M 32.421875 39.777344 " fill-opacity="1" fill-rule="nonzero"/><path fill="#1db2ff" d="M 17.984375 32.03125 L 6.054688 32.03125 C 5.847656 32.03125 5.683594 32.199219 5.683594 32.402344 L 5.683594 40.148438 C 5.683594 40.351562 5.847656 40.515625 6.054688 40.515625 L 17.984375 40.515625 C 18.1875 40.515625 18.355469 40.351562 18.355469 40.148438 L 18.355469 32.402344 C 18.355469 32.199219 18.1875 32.03125 17.984375 32.03125 Z M 17.609375 38.292969 L 12.390625 38.292969 L 12.390625 32.773438 L 17.609375 32.773438 Z M 11.644531 32.773438 L 11.644531 38.292969 L 6.425781 38.292969 L 6.425781 32.773438 Z M 6.425781 39.777344 L 6.425781 39.035156 L 17.609375 39.035156 L 17.609375 39.777344 Z M 6.425781 39.777344 " fill-opacity="1" fill-rule="nonzero"/><path fill="#1db2ff" d="M 22.195312 40.066406 C 22.507812 40.066406 22.761719 39.816406 22.761719 39.507812 C 22.761719 39.195312 22.507812 38.945312 22.195312 38.945312 C 21.882812 38.945312 21.632812 39.195312 21.632812 39.507812 C 21.632812 39.816406 21.882812 40.066406 22.195312 40.066406 Z M 22.195312 40.066406 " fill-opacity="1" fill-rule="nonzero"/></svg>