<svg xmlns="http://www.w3.org/2000/svg" xmlns:xlink="http://www.w3.org/1999/xlink" width="64" zoomAndPan="magnify" viewBox="0 0 48 48" height="64" preserveAspectRatio="xMidYMid meet" version="1.0"><defs><clipPath id="2836a9645e"><path d="M 0.488281 0 L 47.507812 0 L 47.507812 47.019531 L 0.488281 47.019531 Z M 0.488281 0 " clip-rule="nonzero"/></clipPath><clipPath id="772212f411"><path d="M 10.511719 0 L 37.695312 0 L 37.695312 47 L 10.511719 47 Z M 10.511719 0 " clip-rule="nonzero"/></clipPath></defs><g clip-path="url(#2836a9645e)"><path fill="#ffffff" d="M 0.488281 0 L 47.511719 0 L 47.511719 47.019531 L 0.488281 47.019531 Z M 0.488281 0 " fill-opacity="1" fill-rule="nonzero"/><path fill="#ffffff" d="M 0.488281 0 L 47.511719 0 L 47.511719 47.019531 L 0.488281 47.019531 Z M 0.488281 0 " fill-opacity="1" fill-rule="nonzero"/></g><g clip-path="url(#772212f411)"><path fill="#ffffff" d="M 36.480469 10.132812 L 25.824219 0.816406 C 25.332031 0.386719 24.71875 0.171875 24.101562 0.171875 C 23.488281 0.171875 22.871094 0.386719 22.378906 0.816406 L 21.6875 1.421875 C 21.367188 1.28125 21.011719 1.203125 20.636719 1.203125 L 17.816406 1.203125 C 16.378906 1.203125 15.210938 2.359375 15.210938 3.789062 L 15.210938 4.320312 C 15.210938 4.660156 15.277344 4.984375 15.398438 5.28125 L 15.398438 6.921875 L 11.726562 10.132812 C 10.914062 10.84375 10.628906 11.980469 11.011719 12.988281 C 11.394531 13.996094 12.363281 14.660156 13.449219 14.660156 L 13.917969 14.660156 L 13.917969 20.609375 C 13.917969 22.039062 15.085938 23.195312 16.523438 23.195312 L 18.632812 23.195312 C 18.664062 23.671875 18.832031 24.136719 19.121094 24.53125 C 19.214844 24.664062 19.324219 24.785156 19.441406 24.898438 L 19.441406 42.183594 C 19.441406 42.882812 19.730469 43.554688 20.238281 44.042969 L 21.417969 45.171875 C 21.507812 45.257812 21.601562 45.335938 21.699219 45.40625 L 22.042969 45.84375 C 22.535156 46.480469 23.296875 46.851562 24.101562 46.851562 C 24.125 46.851562 24.152344 46.851562 24.175781 46.847656 C 25.007812 46.824219 25.777344 46.410156 26.25 45.730469 L 28.433594 42.574219 C 28.730469 42.144531 28.890625 41.632812 28.890625 41.113281 L 28.890625 39.859375 C 28.890625 39.675781 28.871094 39.496094 28.832031 39.324219 C 28.871094 39.148438 28.890625 38.96875 28.890625 38.789062 L 28.890625 38.136719 C 28.890625 37.523438 28.671875 36.929688 28.269531 36.464844 L 28.085938 36.246094 L 28.273438 35.953125 C 28.675781 35.328125 28.78125 34.574219 28.589844 33.878906 C 28.652344 33.65625 28.683594 33.425781 28.683594 33.191406 L 28.683594 32.300781 C 28.683594 31.820312 28.546875 31.347656 28.292969 30.9375 L 28.0625 30.570312 L 28.121094 30.378906 C 28.367188 29.585938 28.210938 28.71875 27.707031 28.058594 L 27.613281 27.9375 L 28.1875 27.152344 C 28.507812 26.710938 28.683594 26.179688 28.683594 25.632812 L 28.683594 24.96875 C 28.832031 24.839844 28.96875 24.695312 29.085938 24.53125 C 29.375 24.136719 29.539062 23.671875 29.574219 23.195312 L 31.679688 23.195312 C 33.121094 23.195312 34.285156 22.039062 34.285156 20.609375 L 34.285156 14.660156 L 34.757812 14.660156 C 35.839844 14.660156 36.8125 13.996094 37.195312 12.988281 C 37.578125 11.980469 37.292969 10.84375 36.480469 10.132812 " fill-opacity="1" fill-rule="nonzero"/><path fill="#1b6b93" d="M 17.816406 1.308594 C 16.441406 1.308594 15.320312 2.421875 15.320312 3.789062 L 15.320312 4.320312 C 15.320312 4.636719 15.378906 4.945312 15.496094 5.242188 L 15.503906 5.28125 L 15.503906 6.972656 L 11.796875 10.214844 C 11.023438 10.894531 10.75 11.992188 11.113281 12.949219 C 11.476562 13.910156 12.414062 14.550781 13.449219 14.550781 L 14.027344 14.550781 L 14.027344 20.609375 C 14.027344 21.976562 15.148438 23.089844 16.523438 23.089844 L 18.734375 23.089844 L 18.738281 23.1875 C 18.773438 23.652344 18.933594 24.09375 19.207031 24.46875 C 19.300781 24.59375 19.402344 24.710938 19.515625 24.820312 L 19.550781 24.851562 L 19.550781 42.183594 C 19.550781 42.851562 19.828125 43.5 20.3125 43.964844 L 21.492188 45.09375 C 21.578125 45.175781 21.667969 45.25 21.761719 45.316406 L 21.785156 45.339844 L 22.128906 45.78125 C 22.597656 46.382812 23.335938 46.742188 24.101562 46.742188 L 24.171875 46.742188 C 24.96875 46.71875 25.710938 46.316406 26.160156 45.667969 L 28.34375 42.515625 C 28.628906 42.101562 28.78125 41.613281 28.78125 41.113281 L 28.78125 39.859375 C 28.78125 39.6875 28.761719 39.511719 28.726562 39.34375 L 28.722656 39.324219 L 28.726562 39.300781 C 28.761719 39.132812 28.78125 38.960938 28.78125 38.789062 L 28.78125 38.136719 C 28.78125 37.550781 28.570312 36.980469 28.1875 36.53125 L 27.953125 36.257812 L 28.183594 35.894531 C 28.5625 35.304688 28.671875 34.582031 28.484375 33.90625 L 28.476562 33.878906 L 28.484375 33.847656 C 28.542969 33.636719 28.574219 33.414062 28.574219 33.191406 L 28.574219 32.300781 C 28.574219 31.839844 28.445312 31.390625 28.199219 30.996094 L 27.945312 30.585938 L 28.015625 30.347656 C 28.253906 29.585938 28.101562 28.757812 27.617188 28.121094 L 27.476562 27.9375 L 28.097656 27.085938 C 28.410156 26.664062 28.574219 26.160156 28.574219 25.632812 L 28.574219 24.921875 L 28.613281 24.886719 C 28.757812 24.765625 28.886719 24.625 28.996094 24.46875 C 29.273438 24.09375 29.433594 23.652344 29.464844 23.1875 L 29.472656 23.089844 L 31.679688 23.089844 C 33.058594 23.089844 34.179688 21.976562 34.179688 20.609375 L 34.179688 14.550781 L 34.757812 14.550781 C 35.789062 14.550781 36.726562 13.910156 37.09375 12.949219 C 37.457031 11.992188 37.183594 10.894531 36.40625 10.214844 L 25.753906 0.898438 C 25.296875 0.496094 24.710938 0.277344 24.101562 0.277344 C 23.496094 0.277344 22.90625 0.496094 22.453125 0.898438 L 21.707031 1.546875 L 21.644531 1.519531 C 21.328125 1.382812 20.988281 1.308594 20.636719 1.308594 Z M 24.101562 46.957031 C 23.269531 46.957031 22.464844 46.566406 21.957031 45.910156 L 21.621094 45.484375 C 21.523438 45.410156 21.429688 45.332031 21.34375 45.25 L 20.164062 44.121094 C 19.636719 43.613281 19.332031 42.910156 19.332031 42.183594 L 19.332031 24.941406 C 19.222656 24.835938 19.121094 24.71875 19.03125 24.59375 C 18.753906 24.214844 18.582031 23.769531 18.53125 23.304688 L 16.523438 23.304688 C 15.027344 23.304688 13.808594 22.097656 13.808594 20.609375 L 13.808594 14.769531 L 13.449219 14.769531 C 12.328125 14.769531 11.304688 14.070312 10.910156 13.027344 C 10.511719 11.984375 10.8125 10.789062 11.65625 10.054688 L 15.289062 6.875 L 15.289062 5.300781 C 15.164062 4.988281 15.101562 4.65625 15.101562 4.320312 L 15.101562 3.789062 C 15.101562 2.300781 16.320312 1.09375 17.816406 1.09375 L 20.636719 1.09375 C 20.996094 1.09375 21.339844 1.160156 21.667969 1.296875 L 22.308594 0.734375 C 22.804688 0.300781 23.441406 0.0625 24.101562 0.0625 C 24.765625 0.0625 25.402344 0.300781 25.898438 0.734375 L 36.550781 10.054688 C 37.394531 10.789062 37.691406 11.984375 37.296875 13.027344 C 36.898438 14.070312 35.878906 14.769531 34.757812 14.769531 L 34.394531 14.769531 L 34.394531 20.609375 C 34.394531 22.097656 33.179688 23.304688 31.679688 23.304688 L 29.671875 23.304688 C 29.621094 23.769531 29.453125 24.214844 29.175781 24.59375 C 29.0625 24.75 28.933594 24.890625 28.792969 25.019531 L 28.792969 25.632812 C 28.792969 26.203125 28.613281 26.75 28.273438 27.214844 L 27.75 27.933594 L 27.792969 27.992188 C 28.320312 28.679688 28.480469 29.585938 28.222656 30.410156 L 28.179688 30.554688 L 28.382812 30.882812 C 28.652344 31.308594 28.792969 31.800781 28.792969 32.300781 L 28.792969 33.191406 C 28.792969 33.421875 28.761719 33.652344 28.703125 33.878906 C 28.894531 34.601562 28.773438 35.378906 28.367188 36.011719 L 28.222656 36.238281 L 28.351562 36.394531 C 28.769531 36.878906 28.996094 37.5 28.996094 38.136719 L 28.996094 38.789062 C 28.996094 38.96875 28.980469 39.148438 28.945312 39.324219 C 28.980469 39.5 28.996094 39.679688 28.996094 39.859375 L 28.996094 41.113281 C 28.996094 41.660156 28.832031 42.1875 28.519531 42.636719 L 26.339844 45.789062 C 25.851562 46.496094 25.042969 46.933594 24.179688 46.957031 L 24.101562 46.957031 " fill-opacity="1" fill-rule="nonzero"/></g><path fill="#1db2ff" d="M 27.152344 15.492188 L 24.433594 15.492188 L 24.433594 12.796875 L 27.152344 12.796875 Z M 27.152344 18.945312 L 24.433594 18.945312 L 24.433594 16.246094 L 27.152344 16.246094 Z M 21.054688 18.945312 L 21.054688 16.246094 L 23.773438 16.246094 L 23.773438 18.945312 Z M 21.054688 12.796875 L 23.773438 12.796875 L 23.773438 15.492188 L 21.054688 15.492188 Z M 24.101562 2.757812 L 20.449219 5.949219 L 20.449219 4.320312 L 20.636719 4.320312 L 20.636719 3.789062 L 17.816406 3.789062 L 17.816406 4.320312 L 18.003906 4.320312 L 18.003906 8.089844 L 13.449219 12.074219 L 16.523438 12.074219 L 16.523438 20.609375 L 22.027344 20.609375 L 21.230469 23.015625 L 22.046875 23.015625 L 22.046875 42.183594 L 23.226562 43.3125 L 23.226562 23.015625 L 23.636719 23.015625 L 23.636719 43.664062 L 24.101562 44.265625 L 26.285156 41.113281 L 26.285156 39.859375 L 25.628906 39.503906 L 26.285156 38.789062 L 26.285156 38.136719 L 24.855469 36.464844 L 26.078125 34.566406 L 25.628906 33.726562 L 26.078125 33.191406 L 26.078125 32.300781 L 25.222656 30.933594 L 25.628906 29.621094 L 24.855469 28.609375 L 24.855469 27.304688 L 26.078125 25.632812 L 26.078125 23.015625 L 26.976562 23.015625 L 26.175781 20.609375 L 31.679688 20.609375 L 31.679688 12.074219 L 34.757812 12.074219 L 24.101562 2.757812 " fill-opacity="1" fill-rule="nonzero"/></svg>