<svg xmlns="http://www.w3.org/2000/svg" xmlns:xlink="http://www.w3.org/1999/xlink" width="64" zoomAndPan="magnify" viewBox="0 0 48 48" height="64" preserveAspectRatio="xMidYMid meet" version="1.0"><defs><clipPath id="20a077c786"><path d="M 0.488281 0 L 47.507812 0 L 47.507812 47.019531 L 0.488281 47.019531 Z M 0.488281 0 " clip-rule="nonzero"/></clipPath><clipPath id="4aa59ade92"><path d="M 1.953125 0 L 47.214844 0 L 47.214844 47.019531 L 1.953125 47.019531 Z M 1.953125 0 " clip-rule="nonzero"/></clipPath></defs><g clip-path="url(#20a077c786)"><path fill="#ffffff" d="M 0.488281 0 L 47.511719 0 L 47.511719 47.019531 L 0.488281 47.019531 Z M 0.488281 0 " fill-opacity="1" fill-rule="nonzero"/><path fill="#ffffff" d="M 0.488281 0 L 47.511719 0 L 47.511719 47.019531 L 0.488281 47.019531 Z M 0.488281 0 " fill-opacity="1" fill-rule="nonzero"/></g><g clip-path="url(#4aa59ade92)"><path fill="#1b6b93" d="M 19.847656 12.082031 L 19.066406 10.742188 C 18.898438 10.460938 18.539062 10.363281 18.257812 10.53125 C 17.976562 10.695312 17.882812 11.054688 18.046875 11.339844 L 18.828125 12.679688 C 18.9375 12.867188 19.136719 12.972656 19.339844 12.972656 C 19.441406 12.972656 19.542969 12.945312 19.636719 12.890625 C 19.917969 12.726562 20.011719 12.363281 19.847656 12.082031 Z M 21.707031 16.425781 C 21.613281 16.480469 21.507812 16.503906 21.410156 16.503906 C 21.207031 16.503906 21.007812 16.398438 20.898438 16.210938 L 20.117188 14.871094 C 19.953125 14.589844 20.046875 14.226562 20.328125 14.0625 C 20.609375 13.898438 20.96875 13.992188 21.132812 14.273438 L 21.917969 15.617188 C 22.082031 15.898438 21.988281 16.257812 21.707031 16.425781 Z M 15.507812 10.027344 C 15.800781 9.882812 16.15625 10 16.300781 10.292969 L 16.984375 11.6875 C 17.128906 11.980469 17.007812 12.335938 16.71875 12.480469 C 16.632812 12.523438 16.542969 12.542969 16.457031 12.542969 C 16.238281 12.542969 16.03125 12.421875 15.925781 12.210938 L 15.242188 10.816406 C 15.097656 10.523438 15.214844 10.171875 15.507812 10.027344 Z M 18.363281 14.492188 L 19.050781 15.886719 C 19.195312 16.179688 19.074219 16.535156 18.78125 16.679688 C 18.699219 16.722656 18.609375 16.742188 18.523438 16.742188 C 18.304688 16.742188 18.09375 16.617188 17.992188 16.410156 L 17.304688 15.015625 C 17.164062 14.722656 17.28125 14.371094 17.574219 14.226562 C 17.867188 14.082031 18.222656 14.199219 18.363281 14.492188 Z M 15.269531 14.835938 C 15.199219 14.863281 15.128906 14.878906 15.058594 14.878906 C 14.820312 14.878906 14.597656 14.734375 14.507812 14.5 L 13.945312 13.050781 C 13.828125 12.75 13.976562 12.40625 14.28125 12.285156 C 14.585938 12.167969 14.925781 12.320312 15.046875 12.625 L 15.609375 14.070312 C 15.726562 14.375 15.574219 14.71875 15.269531 14.835938 Z M 16.71875 18.644531 C 16.648438 18.671875 16.578125 18.6875 16.507812 18.6875 C 16.269531 18.6875 16.046875 18.542969 15.957031 18.308594 L 15.394531 16.859375 C 15.277344 16.558594 15.425781 16.214844 15.730469 16.09375 C 16.03125 15.976562 16.375 16.128906 16.492188 16.433594 L 17.054688 17.878906 C 17.171875 18.183594 17.023438 18.527344 16.71875 18.644531 Z M 1.953125 25.398438 L 1.953125 25.472656 C 1.953125 26.808594 3.035156 27.890625 4.363281 27.890625 L 4.511719 27.890625 L 4.511719 34.113281 C 4.511719 37.617188 6.574219 40.660156 9.589844 42.191406 C 9.574219 42.21875 9.558594 42.246094 9.542969 42.277344 L 8.421875 44.675781 C 8.058594 45.453125 8.394531 46.378906 9.167969 46.746094 L 9.433594 46.871094 C 9.648438 46.96875 9.871094 47.015625 10.09375 47.015625 C 10.675781 47.015625 11.234375 46.683594 11.5 46.121094 L 12.621094 43.722656 C 12.707031 43.542969 12.753906 43.351562 12.765625 43.160156 C 13.164062 43.210938 13.574219 43.238281 13.988281 43.238281 L 35.46875 43.238281 C 35.882812 43.238281 36.289062 43.210938 36.691406 43.160156 C 36.703125 43.351562 36.75 43.542969 36.835938 43.722656 L 37.957031 46.121094 C 38.21875 46.683594 38.78125 47.015625 39.363281 47.015625 C 39.585938 47.015625 39.808594 46.96875 40.019531 46.871094 L 40.289062 46.746094 C 41.0625 46.378906 41.398438 45.453125 41.035156 44.675781 L 39.914062 42.277344 C 39.898438 42.246094 39.882812 42.21875 39.867188 42.191406 C 42.882812 40.660156 44.945312 37.617188 44.945312 34.113281 L 44.945312 27.894531 L 45.089844 27.894531 C 46.421875 27.894531 47.503906 26.808594 47.503906 25.472656 L 47.503906 25.398438 C 47.503906 24.632812 47.148438 23.953125 46.597656 23.511719 C 46.667969 23.257812 46.707031 23 46.707031 22.730469 C 46.707031 21.148438 45.410156 19.859375 43.8125 19.859375 C 43.34375 19.859375 42.890625 19.972656 42.484375 20.179688 C 42.105469 18 40.183594 16.339844 37.878906 16.339844 C 36.257812 16.339844 34.761719 17.175781 33.917969 18.515625 C 33.515625 18.34375 33.082031 18.257812 32.636719 18.257812 C 31.320312 18.257812 30.164062 19.039062 29.660156 20.195312 C 29.40625 20.117188 29.140625 20.074219 28.871094 20.074219 C 28.386719 20.074219 27.914062 20.207031 27.507812 20.445312 C 26.742188 19.28125 25.410156 18.519531 23.871094 18.40625 C 23.746094 18.394531 23.621094 18.390625 23.5 18.390625 C 21.78125 18.390625 20.300781 19.3125 19.519531 20.808594 C 18.683594 20.070312 17.601562 19.597656 16.648438 19.597656 C 16.074219 19.597656 15.523438 19.734375 15.035156 19.992188 C 14.8125 19.128906 14.351562 18.339844 13.691406 17.707031 C 12.769531 16.824219 11.558594 16.339844 10.277344 16.339844 C 8.003906 16.339844 6.089844 17.878906 5.53125 19.957031 L 5.53125 5.660156 C 5.53125 3.195312 7.285156 1.1875 9.441406 1.1875 C 11.289062 1.1875 12.574219 2.597656 13.265625 5.378906 L 11.949219 6.066406 C 10.910156 6.613281 10.449219 7.988281 10.925781 9.136719 C 11.269531 9.972656 12.035156 10.515625 12.878906 10.515625 C 13.199219 10.515625 13.511719 10.4375 13.804688 10.285156 L 17.039062 8.589844 C 18.078125 8.046875 18.539062 6.667969 18.066406 5.519531 C 17.71875 4.683594 16.953125 4.140625 16.113281 4.140625 C 15.789062 4.140625 15.476562 4.21875 15.183594 4.371094 L 14.339844 4.816406 C 13.269531 0.863281 11.109375 0.00390625 9.441406 0.00390625 C 6.636719 0.00390625 4.351562 2.542969 4.351562 5.660156 L 4.351562 20.753906 C 3.421875 21.078125 2.75 21.957031 2.75 22.988281 C 2.75 23.179688 2.773438 23.363281 2.816406 23.542969 C 2.289062 23.988281 1.953125 24.652344 1.953125 25.398438 Z M 12.496094 7.117188 L 15.730469 5.421875 C 15.855469 5.355469 15.980469 5.324219 16.113281 5.324219 C 16.472656 5.324219 16.8125 5.578125 16.976562 5.96875 C 17.21875 6.558594 16.996094 7.277344 16.492188 7.539062 L 13.257812 9.234375 C 13.136719 9.296875 13.007812 9.332031 12.878906 9.332031 C 12.515625 9.332031 12.179688 9.078125 12.015625 8.6875 C 11.773438 8.097656 11.992188 7.378906 12.496094 7.117188 Z M 19.792969 22.976562 L 4.363281 22.976562 C 4.136719 22.976562 3.914062 23.011719 3.707031 23.074219 C 3.777344 23.03125 3.851562 22.992188 3.929688 22.964844 C 3.945312 22.324219 4.476562 21.804688 5.132812 21.804688 C 5.328125 21.804688 5.515625 21.847656 5.691406 21.9375 L 6.59375 22.402344 L 6.546875 21.382812 C 6.542969 21.316406 6.542969 21.261719 6.542969 21.210938 C 6.542969 19.175781 8.21875 17.523438 10.277344 17.523438 C 12.296875 17.523438 13.9375 19.085938 14.007812 21.078125 L 14.046875 22.195312 C 14.074219 22.210938 14.101562 22.226562 14.125 22.242188 C 14.15625 22.242188 14.191406 22.238281 14.222656 22.230469 C 14.242188 22.226562 14.261719 22.230469 14.277344 22.238281 L 15.023438 21.46875 C 15.449219 21.023438 16.027344 20.777344 16.648438 20.777344 C 17.507812 20.777344 18.625 21.40625 19.246094 22.242188 Z M 45.5 23.015625 C 45.367188 22.992188 45.230469 22.976562 45.089844 22.976562 L 20.015625 22.976562 L 20.285156 22.054688 C 20.621094 20.910156 21.664062 19.574219 23.5 19.574219 C 23.59375 19.574219 23.691406 19.578125 23.785156 19.585938 C 25.15625 19.6875 26.304688 20.449219 26.777344 21.578125 L 27.132812 22.425781 L 27.757812 21.746094 C 28.039062 21.4375 28.445312 21.257812 28.871094 21.257812 C 29.167969 21.257812 29.453125 21.34375 29.699219 21.503906 L 30.445312 21.996094 L 30.605469 21.117188 C 30.78125 20.144531 31.632812 19.4375 32.636719 19.4375 C 33.0625 19.4375 33.46875 19.566406 33.816406 19.804688 L 34.398438 20.203125 L 34.6875 19.5625 C 35.253906 18.324219 36.503906 17.523438 37.878906 17.523438 C 39.804688 17.523438 41.375 19.070312 41.375 20.972656 C 41.375 21.042969 41.351562 21.609375 41.378906 21.757812 C 41.40625 21.929688 41.453125 22.105469 41.613281 22.183594 C 41.917969 22.335938 42.417969 21.746094 42.417969 21.746094 C 42.738281 21.304688 43.261719 21.042969 43.8125 21.042969 C 44.757812 21.042969 45.527344 21.800781 45.527344 22.730469 C 45.527344 22.828125 45.519531 22.921875 45.5 23.015625 Z M 37.890625 42.9375 L 37.886719 42.933594 C 38.1875 42.859375 38.476562 42.769531 38.761719 42.667969 C 38.796875 42.699219 38.824219 42.734375 38.84375 42.777344 L 39.964844 45.175781 C 40.054688 45.363281 39.972656 45.585938 39.785156 45.671875 L 39.519531 45.800781 C 39.332031 45.886719 39.113281 45.804688 39.023438 45.621094 L 37.902344 43.222656 C 37.859375 43.132812 37.855469 43.03125 37.890625 42.9375 Z M 10.691406 42.667969 C 10.976562 42.769531 11.269531 42.859375 11.566406 42.933594 L 11.566406 42.9375 C 11.597656 43.03125 11.59375 43.132812 11.550781 43.222656 L 10.429688 45.621094 C 10.34375 45.804688 10.121094 45.886719 9.9375 45.800781 L 9.667969 45.671875 C 9.484375 45.585938 9.402344 45.363281 9.488281 45.175781 L 10.609375 42.78125 C 10.632812 42.738281 10.660156 42.699219 10.691406 42.667969 Z M 5.691406 27.894531 L 43.761719 27.894531 L 43.761719 34.113281 C 43.761719 38.492188 40.042969 42.054688 35.46875 42.054688 L 13.988281 42.054688 C 9.414062 42.054688 5.691406 38.492188 5.691406 34.113281 Z M 3.132812 25.398438 C 3.132812 24.714844 3.683594 24.160156 4.363281 24.160156 L 45.089844 24.160156 C 45.769531 24.160156 46.324219 24.714844 46.324219 25.398438 L 46.324219 25.472656 C 46.324219 26.15625 45.769531 26.710938 45.089844 26.710938 L 4.363281 26.710938 C 3.683594 26.710938 3.132812 26.15625 3.132812 25.472656 Z M 33.859375 15.101562 C 33.859375 14.011719 32.976562 13.125 31.894531 13.125 C 30.8125 13.125 29.929688 14.011719 29.929688 15.101562 C 29.929688 16.191406 30.8125 17.078125 31.894531 17.078125 C 32.976562 17.082031 33.859375 16.191406 33.859375 15.101562 Z M 32.800781 15.101562 C 32.800781 15.605469 32.394531 16.015625 31.894531 16.015625 C 31.394531 16.015625 30.988281 15.605469 30.988281 15.101562 C 30.988281 14.601562 31.394531 14.191406 31.894531 14.191406 C 32.394531 14.191406 32.800781 14.601562 32.800781 15.101562 Z M 36.859375 10.546875 C 36.859375 9.683594 36.164062 8.984375 35.308594 8.984375 C 34.453125 8.984375 33.753906 9.683594 33.753906 10.546875 C 33.753906 11.410156 34.453125 12.109375 35.308594 12.109375 C 36.164062 12.109375 36.859375 11.410156 36.859375 10.546875 Z M 35.804688 10.546875 C 35.804688 10.820312 35.582031 11.046875 35.308594 11.046875 C 35.035156 11.046875 34.8125 10.820312 34.8125 10.546875 C 34.8125 10.273438 35.035156 10.050781 35.308594 10.050781 C 35.582031 10.050781 35.804688 10.273438 35.804688 10.546875 Z M 29.105469 12.390625 C 29.105469 11.527344 28.410156 10.828125 27.550781 10.828125 C 26.695312 10.828125 26 11.527344 26 12.390625 C 26 13.253906 26.695312 13.953125 27.550781 13.953125 C 28.410156 13.953125 29.105469 13.253906 29.105469 12.390625 Z M 28.046875 12.390625 C 28.046875 12.664062 27.824219 12.890625 27.550781 12.890625 C 27.277344 12.890625 27.054688 12.664062 27.054688 12.390625 C 27.054688 12.117188 27.277344 11.890625 27.550781 11.890625 C 27.824219 11.890625 28.046875 12.117188 28.046875 12.390625 Z M 28.046875 12.390625 " fill-opacity="1" fill-rule="nonzero"/></g></svg>