<svg xmlns="http://www.w3.org/2000/svg" xmlns:xlink="http://www.w3.org/1999/xlink" width="500" zoomAndPan="magnify" viewBox="0 0 375 374.999991" height="500" preserveAspectRatio="xMidYMid meet" version="1.0"><defs><clipPath id="8484eebb8d"><path d="M 0 0 L 259.5 0 L 259.5 375 L 0 375 Z M 0 0 " clip-rule="nonzero"/></clipPath></defs><g clip-path="url(#8484eebb8d)"><path fill="#1db2ff" d="M 259.515625 376.136719 L 56.890625 376.136719 L 56.890625 76.722656 L 3.714844 129.886719 L 3.714844 374.273438 L 0 374.273438 L 0 128.351562 L 56.890625 71.472656 L 56.890625 12.644531 L 86.308594 42.054688 L 127.988281 0.390625 L 259.507812 131.878906 L 259.507812 376.136719 Z M 60.605469 372.425781 L 255.792969 372.425781 L 255.792969 133.414062 L 127.988281 5.640625 L 88.9375 44.683594 L 189.613281 145.332031 L 189.613281 253.902344 L 185.898438 253.902344 L 185.898438 146.867188 L 86.316406 47.3125 L 60.605469 73.011719 Z M 60.605469 21.605469 L 60.605469 67.761719 L 83.6875 44.683594 Z M 158.6875 374.253906 L 157.4375 283.796875 L 100.828125 283.796875 L 100.828125 374.28125 L 104.542969 374.28125 L 104.542969 287.511719 L 153.777344 287.511719 L 154.980469 374.304688 Z M 158.6875 374.253906 " fill-opacity="1" fill-rule="nonzero"/></g></svg>